<svg data-name="レイヤー 2" xmlns="http://www.w3.org/2000/svg" viewBox="0 0 28.628 23.266"><path d="M9.003 23.266c10.803 0 16.711-8.95 16.711-16.711 0-.254-.005-.508-.017-.759a11.932 11.932 0 002.93-3.041 11.735 11.735 0 01-3.373.925A5.893 5.893 0 0027.837.431a11.783 11.783 0 01-3.729 1.426 5.874 5.874 0 00-10.009 5.356A16.672 16.672 0 011.993 1.076a5.851 5.851 0 00-.795 2.952 5.868 5.868 0 002.614 4.889 5.825 5.825 0 01-2.66-.735l-.001.075a5.875 5.875 0 004.712 5.758 5.895 5.895 0 01-2.652.101 5.88 5.88 0 005.487 4.079 11.79 11.79 0 01-7.295 2.514c-.474 0-.941-.027-1.401-.081a16.625 16.625 0 009.003 2.638" fill="#fff" data-name="レイヤー 1"/></svg>