<svg id="_レイヤー_2" data-name="レイヤー 2" xmlns="http://www.w3.org/2000/svg" viewBox="0 0 300.117 38.819"><defs><style>.cls-1{fill:#231815}</style></defs><g id="_レイヤー_1-2" data-name="レイヤー 1"><path class="cls-1" d="M57.643 32.918C57.542 22.396 48.986 13.9 38.447 13.9a19.65 19.65 0 00-4.172.451L46.439 5.84a.93.93 0 00.22-1.289.92.92 0 00-1.286-.228L4.583 32.918h-.015L.117 36.026h60.146v-3.108h-2.62zm-35.38-10.142c-.285.463-.564.926-.821 1.41-.187-.003-.372-.019-.56-.019-.22 0-.43.017-.634.025l2.016-1.415zM11.365 32.918H7.801l4.341-3.049a9.616 9.616 0 00-.777 3.049zm1.136 0c.532-3.764 3.756-6.667 7.654-6.667.119 0 .236.005.347.01a19.126 19.126 0 00-1.254 6.657h-6.747zm7.798 0a17.236 17.236 0 011.643-6.449 7.751 7.751 0 015.885 6.449H20.3zm10.098 0c-.336-4.158-3.356-7.559-7.317-8.493 3.093-4.743 8.448-7.872 14.526-7.872 9.249 0 16.8 7.232 17.304 16.365H30.397zm238.75-28.516h13.55c.71 0 1.225-.97 1.528-1.667.305-.699.859-1.989-.098-1.989h-14.979c-.713 0-1.284.826-1.284 1.834s.571 1.822 1.284 1.822zm15.008 8.186V8.831c0-1.2-.943-2.169-2.091-2.169h-10.692c-1.154 0-2.092.97-2.092 2.169v2.851l-.013-.017s.004.209.013.524v.777c0 .137.024.247.04.38.026.976.04 2.105-.016 2.494-.129.851-.983 1.789-1.927 2.248-.939.467-2.571.559-2.571.559s-.703.25-.252 1.152c.448.886 2.619 2.491 2.619 2.491s1.104.434 1.845.221c.735-.221.781-.302 1.925-1.491 1.151-1.191.936-4.162.936-4.162s-.089-1.406 1.397-1.661c.094-.009.19-.034.256-.058h7.611c1.153 0 3.01-1.355 3.01-2.552zm-4.738-.952h-6.396c-.464 0-.852-.407-.852-.9s.389-.89.852-.89h6.396c.483 0 .86.398.86.89s-.377.9-.86.9z"/><path class="cls-1" d="M299.746 8.832h-10.688a4.959 4.959 0 01-.216-1.575c.04-.97.664-1.665 1.604-1.692.94-.052 4.91-.598 6.382-.988 1.484-.377 2.707-1.056 2.79-1.566.081-.513-.134-.807-.498-1.148-.367-.342-1.015-1.065-1.262-1.107-.244-.048-.861.041-.861.041s-2.739.723-4.307.888c-1.556.177-5.272 0-5.272 0s-1.357-.076-1.32 1.749c.039 1.83.174 7.734.039 8.754-.112 1.015-1.184 4.072-3.319 4.969-2.126.9-3.64 1.027-4.18 1.1-.523.093-1.968.3-.691 1.405a82.642 82.642 0 002.907 2.379s2.827.429 4.916-1.056c2.009-1.426 2.966-3.378 3.028-6.822.021-.018.021-.041.044-.058.586-.901 1.473-.773 1.473-.773s.988.04 2.265.063c.19.226.362.594.362 1.217 0 1.398.039 6.287.039 6.287s-.075 1.786 1.767 1.786 1.756-2.333 1.756-2.333l-.329-6.209s.236-.438.52-.805c.695-.044 1.262-.116 1.57-.213 1.353-.469 1.594-1.424 1.801-2.85.212-1.443-.32-1.443-.32-1.443zm-150.625 5.847c-.262.155-2.559 1.285-4.203 1.232-1.631-.049-1.873-.4-1.873-1.335V6.895c.03-.147.056-.307.056-.455a2.055 2.055 0 00-2.06-2.061h-8.357c.063-.58.088-1.016.105-1.192.058-.771.365-1.344-.102-1.809-.452-.464-3.103-1.138-3.372-1.166-.278-.034-.957 0-.681 1.069.093.363.199 1.561.187 3.098h-9.65c-1.14 0-2.057.918-2.057 2.061 0 1.131.917 2.056 2.057 2.056h9.285c-.209 1.179-.529 2.337-.99 3.299-2.353-.524-5.23-1.063-5.582-1.11-.498-.056-1.792-.253-2.151.863-.372 1.14.693 1.783.693 1.783s2.185.798 4.128 1.528c-2.046 1.454-3.111 1.556-3.812 1.76-.86.244-3.652.497-4.295.497s-.603.563-.318.85c.296.3 1.712 2.297 2.463 3.049.753.752 1.559.608 2.359.462.801-.159 5.625-1.968 7.57-3.933.256-.274.487-.519.69-.758 1.48.697 2.966 1.426 2.966 1.426s1.098.777 1.538-.205c.415-.981.666-2.798.7-3.204.03-.399-.403-.807-.403-.807s-1.24-.568-2.731-1.11c.05-.176.125-.347.181-.533.311-.868.568-2.341.774-3.855h7.067c.189.156.364.367.364.586v9.932c0 1.847 2.549 2.593 3.49 2.695.938.105 4.194-.192 4.987-.451.842-.282.938-.797 1.086-1.508.146-.701.58-3.533.58-4.442s-.421-.793-.688-.629zm34.947 2.947s-2.806.048-5.367-.373c-2.442-.4-3.048-1.344-3.214-1.8h4.478c.771 0 1.397-.606 1.397-1.361V7.85c0-.759-.626-1.371-1.397-1.371h-9.583V5.326h12.937c.826 0 1.724-1.524 1.724-2.349s-.588-.642-1.414-.642h-13.246V1.169c0-1.005-.819-.996-1.831-.996-1.003 0-1.816-.009-1.816.996v1.166h-12.108a1.5 1.5 0 00-1.503 1.506c0 .819.67 1.485 1.503 1.485h12.108v1.153h-9.633c-.766 0-1.386.612-1.386 1.371v6.242c0 .755.62 1.361 1.386 1.361h4.68c-.145.456-.759 1.4-3.204 1.8-2.558.421-5.368.373-5.368.373s-1.056.123-.573.974l2.501 2.877s1.804.36 3.163.081c1.348-.294 3.351-1.44 5.404-3.116a99.492 99.492 0 013.031-2.403v4.307c0 1.009.812 1.819 1.816 1.819a1.822 1.822 0 001.831-1.819v-4.893h.008c1.147 1.14 1.067 1.245 3.181 2.989 2.06 1.676 4.061 2.822 5.411 3.116 1.357.279 2.992.568 3.732.239.733-.32 1.927-3.197 1.927-3.197.497-.851-.572-.974-.572-.974zm-12.829-8.82h5.043c.251 0 .448.208.448.453a.448.448 0 01-.448.454h-5.043a.451.451 0 01-.451-.454c0-.245.202-.453.451-.453zm0 3.246h5.043c.251 0 .448.2.448.451a.449.449 0 01-.448.449h-5.043a.45.45 0 110-.9zm-10.207-3.246h5.047a.46.46 0 01.456.453.454.454 0 01-.456.454h-5.047a.454.454 0 01-.445-.454c0-.245.209-.453.445-.453zm-.445 3.697c0-.251.209-.451.445-.451h5.047c.25 0 .456.2.456.451a.455.455 0 01-.456.449h-5.047a.455.455 0 01-.445-.449zm50.594-3.04h.856c.768 0 1.393-.632 1.393-1.426l-.159-4.93c0-.794.733-1.386.045-1.808-.396-.232-1.6-.537-2.136-.655-.532-.139-1.398-.341-1.398.448v6.945c0 .794.63 1.426 1.398 1.426zm4.598 1.432c.252.128 1.073.225 1.889-.194.824-.425 1.214-.656 1.586-1.242.265-.418.258-1.294.239-1.743.004-.014.012-.031.012-.056l-.176-4.938c0-.784.737-1.379.039-1.791-.381-.235-1.597-.551-2.122-.671-.532-.133-1.397-.327-1.397.458v6.18c-.056.278-.168.684-.417.762-.365.136-.873.207-1.078.26-.266.065-.399.46.218 1.34.607.874.961 1.504 1.207 1.635z"/><path class="cls-1" d="M222.024 17.46c-.895.083-2.819.083-4.901-.373-2.097-.465-3.151-.712-4.143-1.216-.207-.103-.362-.174-.516-.252.057-.365.086-.63.074-.755 0-.05-.025-.119-.044-.19h6.871c.692 0 1.708-.956 2.086-1.336.382-.372 1.047-1.272.092-1.272h-10.266v-.861s.154-.642-.551-1.003c-.708-.358-2.402-.717-2.402-.717s-.781-.172-.624.761c.124.714.124 1.4-.229 1.821h-5.931l-.288-.618c.045-.077.088-.154.136-.222a4.666 4.666 0 00.691-1.566c.342-.11.66-.133 1.028.017.673.274.495.715.664 1.174.16.458.777.546 1.801.546s1.271-.71 1.271-1.13c0-.422-.208-1.005-.329-1.637-.127-.626-.941-.883-.941-.883s-1.743-.282-3.431-.449c-.013-.256-.015-.51-.019-.775h4.569c.625 0 1.444-.675 1.947-1.204.519-.513.746-1.317.127-1.317h-6.618c.009-.058.019-.107.019-.147.109-.59.328-.493.767-.755h2.514c.51 0 1.229-.374 1.652-.803.42-.431.505-1.264-.015-1.264h-5.023c-.09-.07-.173-.13-.267-.183-.892-.586-1.267-.878-2.447-.843-.611.022-1.027.498-1.299 1.027h-.987c-.008-.01-.008-.014-.008-.014s-.783-.46-.832-.714c-.034-.248-.779-.333-1.138-.089-.372.254-1.684 1.387-2.127 1.596-.457.205-.947.748-.824 1.337.063.275.148.588.232.855h-.169c-.626 0-1.123.567-1.123 1.266 0 .691.497 1.255 1.123 1.255h5.771c.023.227.038.457.066.686-1.556.076-3.072.222-3.441.254-.577.039-1.105.2-1.477.789-.367.593-.327 1.885-.045 2.599.151.378.428.899.691 1.216h-2.448c-.702 0-1.265.582-1.265 1.295 0 .731.563 1.313 1.265 1.313h4.144c-.94.755-1.903 1.43-2.694 1.719-1.48.527-2.408.687-3.117.687-.703 0-.582.641-.302 1.074.267.446 1.431 1.914 2.111 2.618.699.705.908.407 1.506.247.593-.169 1.601-.721 2.469-1.532.28-.262.954-.89 1.767-1.663v2.47s-.142 1.684 1.698 1.684h8.182s2.512.083 3.736-1.644c.362-.519.659-1.166.91-1.829.713.483 3.48 2.355 4.085 2.69.656.354 2.865 1.337 4.101.533 1.224-.793 2.611-3.471 2.611-3.471s.412-.876-.492-.797zM196.319 3.999c.265-.321.571-.691.77-.903h.618c.016.254.041.554.058.903h-1.446zm2.004 8.066h-3.673c.508-.458 1.396-1.203 1.535-1.553.169-.417.653-.957 1.184-.957.368 0 .739.211.948.341.047.332.088.602.118.789.08.369.174.704.269.981-.059.081-.199.218-.381.399zm4.691 3.396c-.544.081-1.414-.075-1.452.531-.037.6.828.759 1.183 1.245.355.483.63.845.085 1.086-.558.234-2.41-.04-2.41-.04s-.508-.159-.508-.806c0-.641.083-1.884.083-1.884s.07-.766.94-.848c.861-.08 2.279-.044 2.522.163.23.2.112.479-.444.554zm6.89 2.337c-.163.325-1.028.407-1.415.442-.403.043-1.18 0-1.061-.606.114-.602.895-.994.895-.994s.956 0 1.262.196c.32.196.473.641.32.962zm48.592-11.473c1.183-.161 1.628-.706 2.616-2.466.918-1.656-.938-1.413-.938-1.413l-16.954.01c-.009-.603-.089-1.125-.254-1.304-.371-.408-.868-.573-1.6-.94-.733-.371-.89 1.018-.89 1.018s-.541 2.056-1.685 3.409c-1.145 1.351-2.634 2.366-3.409 2.538-.36.075-.634.177-.772.302v-.584c.402-1.187.847-2.543 1.187-3.408.157-.421.482-.461.528-.612.205-.657-.114-1.272-.808-1.723-.708-.448-1.316-.66-1.56-.448-.247.204-.576 1.1-.576 1.1s-1.024 2.38-2.784 4.509c-1.765 2.127-3.396 3.196-3.396 3.196s-1.107.291-.333 1.436l1.964 2.907s.701.535 1.521-.121c.253-.208.641-.626 1.074-1.143.021 1.378.094 5.037-.014 6.056-.124 1.272-.245 3.239 1.557 3.239s1.64-2.055 1.64-2.711V7.818a.337.337 0 00.124.093s1.264.788 1.684 1.599c.407.825 1.214 1.595 2 1.595 1.143 0 1.907-1.556 2.583-2.864.231-.435.5-.917.776-1.398.249-.031.536-.039.661.081.241.253-.165 11.845-.165 12.543s.522 2.331 2.211 2.331c1.639 0 1.87-1.6 1.884-2.134 4.256-.057 11.145-.026 11.964-.134 1.174-.165 1.312-.03 2.084-1.915.724-1.76-.868-1.671-.868-1.671l-12.969-.034s-.905-.205-.905-1.32c0-.789.428-1.245.683-1.436 4.299-.062 11.238.045 12.049-.074 1.194-.163 1.514-.531 2.291-2.42.733-1.763-.856-1.597-.856-1.597l-13.546-.021c-.314-.15-.868-.54-.868-1.296 0-.501.318-.981.653-1.338 4.923-.079 11.666.025 12.415-.081zM83.784 8.272c-.492-.362-1.596-.774-1.679-1.268a.897.897 0 01.086-.533c1.788-.239 1.882-.363 1.882-.363S85.377 5 84.81 4.797c-.368-.131-2.516-.156-4.304-.185.026-.318.039-.582.048-.805l1.634-.039s.854-.098 1.313-.613c.447-.535.039-1.01-1.236-1.104a75.606 75.606 0 00-1.716-.08c-.127-.544-.509-1.308-1.153-1.308-.666 0-.953.655-1.087 1.229-.221-.005-.417-.01-.586-.017-.003-.364-.11-.632-.409-.725-.493-.165-.74.16-.74.16s-.493.824-.939 1.144c-.208.158-.473.3-.693.439.009-.185-.204-.306-.868-.351a50.937 50.937 0 00-1.397-.065c-.043-.508-.372-1.572-1.011-1.572-.664 0-.888.894-.967 1.504l-1.001-.03s-1.067.034-1.067.864c0 .812 1.067.855 1.067.855l.99.034c.01.235.015.483.026.731l-1.88 1.648s-.579.907-.282 1.849c.231.77 1.145.492 1.68-.043.168-.177.393-.4.604-.624.05 1.018.083 1.769.083 1.769s.045.945.785.945.652-.945.652-.945c.043-.813.074-1.519.11-2.132.291-.019.929-.065 1.206-.157.289-.094.656-1.014.798-1.393.241.436.957.795 2.062.85.178.017.377.03.584.034-.164.276-.542.845-1.153 1.123-.824.364-1.929.909-1.721 1.636.204.745 1.02.655 2.043-.083a37.39 37.39 0 002.141-1.699c.053 1.065.105 1.866.105 1.866s.044.944.918.944c.865 0 .767-.944.767-.944.052-.857.098-1.59.132-2.231.146-.045.319-.061.447.019.238.163 1.472 1.839 1.84 2.092.364.24 1.237.813 1.769.492.519-.329-.128-1.229-.619-1.609zM78.28 4.55c-.017-.004-.053-.004-.074-.004a5.97 5.97 0 01-1.428-.273c.139-.127.253-.265.353-.422l.099.01 1.02-.021c.016.23.022.467.03.709zm-3.914.821a.62.62 0 00.013.183l-1.778-.745c.01-.227.027-.431.03-.606l.418.018s1.024-.282 1.47-.736c.044.204.315.546.659.808-.301.217-.783.642-.811 1.077zm29.656 2.496s-2.016.044-3.936-.863c-.727-.334-1.145-1.064-1.391-1.88l4.091-.041s.984-.222 1.44-.746c.452-.528.695-.998-.581-1.093a38.677 38.677 0 00-1.549-.052V2.136c0-.524-.422-.938-.943-.938s-.947.413-.947.938v1.028c-.572 0-1.187-.008-1.832-.025-.032-.599-.013-1.06-.013-1.206 0-.453-.084-.904-.936-1.152-.866-.243-1.069.613-1.069.613l.036 1.725c-3.552-.04-7.077-.067-7.077-.067s-1.063.044-1.063.994 1.515 1.156 1.515 1.156l6.978-.059c.114.083.257.2.408.338.09.355-.269.515-.834.588-.62.079-6.599-.333-6.599-.333s-.863.128-.863.947.988.944.988.944.816-.015 1.879-.018c.124.123.254.279.254.464 0 .2-.161.436-.323.626l-2.421.034s-.821 0-.821.86.947.939.947.939 6.339-.407 7.04-.407c.691 0 .899-.282 1.268-.903.362-.612-.65-.612-.65-.612l-2.723.043a.909.909 0 01-.232-.621c0-.213.074-.36.178-.468.968-.015 1.789-.037 2.078-.065a.994.994 0 00.938-.867l.674.066c.333 1.023 1.85 2.494 2.889 3.015 1.067.531 2.494 1.267 3.042 1.023.528-.247.723-1.144.77-2.038.047-.909-.609-.832-.609-.832zm-19.543 6.967c-.86-.447-4.633-.861-5.651-1.477-1.131-.675-2.705-.571-3.319-.293-.613.293-1.064.545-2.663 1.028-1.597.497-3.933.664-3.933.664s-.976.371-.321 1.672c.659 1.321 1.472.943 2.048.62.173-.095.584-.292 1.085-.514.244.063.524.178.717.353.405.367 3.639.245 4.908.201 1.273-.04 2.709-.077 2.993-.124.23-.026.877-.292 1.353-.665.065.006.133.039.204.057 1.601.362 2.008.362 2.255.235.248-.114 1.181-1.312.324-1.756zm-6.095.531c-.664.243-2.341.039-2.592-.203-.103-.103-.178-.289-.23-.463.542-.325.938-.577 1.217-.607.365-.044 1.223 0 1.715.46.085.071.204.174.338.276-.084.231-.214.444-.448.537z"/><path class="cls-1" d="M83.057 17.752c-1.069-.074-13.152-.207-13.152-.207s-1.072.041-1.072.936c0 .877 1.072.927 1.072.927l.706.014c.146.226.338.597.23.865-.163.405-.859 2.003 1.063 2.083 1.925.084 7.815-.041 9.048-.207 1.236-.163 1.891-.733 1.521-1.516-.252-.531-.331-.832-.278-1.074.478-.128 1.281-.384 1.588-.709.457-.486.54-1.024-.727-1.113zm-3.235 2.734H73.56a.472.472 0 01-.47-.466c0-.258.214-.471.47-.471h2.676l3.843.08a.472.472 0 01.221.391.478.478 0 01-.478.466zm24.385-.62c-.448-.038-2.255-.038-4.204-.032v-1.937l2.416-.07s.779.006 1.155-.575c.362-.575.866-1.307-.391-1.4-.428-.031-1.747-.041-3.179-.031v-1.774c0-.508-.422-.932-.941-.932s-.934.425-.934.932v1.788c-1.501.017-2.74.026-2.74.026s-1.059.049-1.059 1.01c0 .949 1.511 1.157 1.511 1.157l2.288-.079v1.893c-2.078.014-3.886.037-3.886.037s-.044.004-.108.022c.094-.597.253-1.764-.119-2.036-.185-.141-.606-.187-.963-.203.262-.515.541-1.067.733-1.46a.993.993 0 00.487-.852c0-.559-.271-.762-.82-.762l-1.151-.074c0-.013.005-.031.005-.05v-.417a.945.945 0 00-.944-.932.937.937 0 00-.941.932v.372l-1.291-.075a1.005 1.005 0 100 2.011h2.061c-.136.337-.457.897-1.258 1.058-1.193.25-2.011.17-2.011.17s-.739.332-.372 1.185c.372.86.864 1.191.864 1.191s.695-.085 1.229-.131c.124 0 .325-.037.573-.094v1.575c0 .536.431.981.976.981s.99-.445.99-.981v-2.093c.176.013.382.039.606.084.429.076.839.449 1.068.703-.229.128-.493.364-.493.87 0 .959 1.336 1.162 1.336 1.162l8.745-.199s.77.006 1.149-.573c.364-.57.881-1.304-.387-1.397zm-24.308 6.209l2.643 9.867h-1.293l-1.6-6.029-2.753 6.394-2.762-6.445-1.621 6.081h-1.286l2.643-9.867 3.025 7.061 3.004-7.061zm7.761.031l4.563 9.837H90.84l-1.122-2.423h-4.099l-1.109 2.423h-1.373l4.524-9.837zm-.003 2.957l-1.545 3.378h3.108l-1.563-3.378zm6.14-2.593h2.093c1.04 0 1.89.254 2.544.762s.981 1.158.981 1.951c0 .634-.211 1.194-.634 1.68-.425.485-1.085.828-1.983 1.026l2.808 4.053h-1.515l-2.679-3.896h-.297v3.896h-1.319v-9.473zm1.319 1.145v3.302c1.947.04 2.92-.514 2.92-1.659 0-.402-.113-.729-.34-.984a1.73 1.73 0 00-.911-.521c-.379-.092-.935-.138-1.669-.138zm6.351-1.131h1.32v5.822c0 .862.211 1.53.633 2 .423.471 1.02.706 1.794.706.769 0 1.367-.217 1.795-.65.426-.433.64-1.045.64-1.834v-6.045h1.32v5.956c0 1.161-.337 2.088-1.013 2.781-.674.694-1.574 1.042-2.696 1.042-1.148 0-2.066-.352-2.756-1.056s-1.036-1.742-1.036-3.115v-5.607zm8.991-.014h5.907v1.294h-2.306v8.178h-1.304v-8.178h-2.297V26.47zm6.835 4.68c0-1.367.525-2.538 1.577-3.514s2.316-1.464 3.792-1.464c1.441 0 2.682.491 3.723 1.475 1.042.983 1.563 2.151 1.563 3.502 0 1.432-.514 2.641-1.542 3.63-1.029.989-2.293 1.482-3.789 1.482-1.476 0-2.732-.498-3.769-1.494-1.036-.996-1.554-2.202-1.554-3.619zm9.252.06c0-1.046-.383-1.926-1.152-2.641-.769-.715-1.715-1.073-2.837-1.073-1.066 0-1.98.364-2.742 1.092-.76.729-1.141 1.603-1.141 2.623 0 1.034.39 1.91 1.172 2.626.781.715 1.738 1.073 2.87 1.073 1.042 0 1.94-.366 2.696-1.096s1.134-1.598 1.134-2.603zm7.13-4.74h5.907v1.294h-2.306v8.178h-1.304v-8.178h-2.297V26.47zm12.425 6.655h-5.34c.116.63.382 1.089.793 1.379s.861.435 1.346.435c.748 0 1.375-.304 1.881-.914l.963.715c-.723.917-1.692 1.375-2.904 1.375-.931 0-1.709-.311-2.336-.937-.627-.624-.941-1.4-.941-2.327 0-.867.317-1.62.953-2.257.634-.636 1.409-.954 2.324-.954.9 0 1.67.323 2.313.97.641.647.958 1.485.948 2.517zm-5.203-1.033h3.822c-.425-.844-1.052-1.264-1.881-1.264-.905 0-1.552.42-1.941 1.264zm10.651-1.554l-.88.758c-.227-.158-.425-.278-.591-.36s-.364-.123-.591-.123c-.537 0-.805.194-.805.581 0 .277.34.547 1.02.808s1.169.548 1.468.861c.298.311.448.687.448 1.128 0 .515-.215.966-.644 1.349-.43.385-.935.575-1.517.575-.885 0-1.611-.402-2.177-1.204l1.039-.491c.363.347.743.519 1.138.519.273 0 .511-.073.716-.218.205-.146.307-.317.307-.509 0-.343-.359-.65-1.076-.924-.719-.273-1.215-.55-1.491-.829s-.413-.626-.413-1.036c0-.511.195-.935.588-1.276.392-.339.882-.508 1.475-.508s1.253.3 1.986.9zm1.977-2.514h1.32v1.785h1.304v1.182h-1.304v4.952h-1.32v-4.952h-1.039v-1.198h1.039v-1.769zm3.698-.231c0-.267.1-.499.303-.694a.997.997 0 01.722-.294c.273 0 .509.098.709.294.199.195.3.428.3.694a.94.94 0 01-.3.7.99.99 0 01-.709.29c-.278 0-.519-.098-.722-.29a.937.937 0 01-.303-.7zm.372 2.016h1.304v6.134h-1.304v-6.134zm3.188 6.134v-6.134h1.29v1.019c.379-.412.722-.713 1.03-.904s.653-.286 1.032-.286c.567 0 1.05.182 1.453.55.402.367.603.808.603 1.323v4.432h-1.32v-4.052c0-.333-.11-.607-.33-.825s-.499-.327-.838-.327c-.44 0-.819.182-1.138.545-.319.364-.478.805-.478 1.32v3.339h-1.304zm12.409-6.134h1.29v5.888c0 .868-.304 1.604-.914 2.212-.61.607-1.346.91-2.211.91a3.312 3.312 0 01-1.812-.524c-.551-.349-.956-.881-1.214-1.594h1.366c.409.663.979.996 1.706.996.495 0 .918-.175 1.267-.524.349-.35.522-.77.522-1.261v-1.159c-.637.907-1.441 1.36-2.41 1.36-.799 0-1.497-.323-2.091-.97s-.891-1.412-.891-2.294.29-1.639.869-2.267c.578-.63 1.267-.944 2.066-.944 1.032 0 1.851.488 2.456 1.464v-1.293zm.182 3.056c0-.575-.204-1.056-.61-1.443-.407-.386-.911-.58-1.514-.58-.551 0-1.036.201-1.456.603-.419.402-.628.865-.628 1.39 0 .57.207 1.06.621 1.472s.908.617 1.479.617a2.06 2.06 0 001.491-.603c.412-.402.617-.887.617-1.456zm15.878-6.79l2.643 9.867h-1.293l-1.6-6.029-2.753 6.394-2.762-6.445-1.621 6.081h-1.286l2.643-9.867 3.025 7.061 3.004-7.061zm9.298 3.734h1.319v6.134h-1.319v-1.22c-.643.927-1.439 1.39-2.389 1.39-.825 0-1.528-.317-2.112-.951s-.877-1.406-.877-2.313c0-.857.294-1.607.884-2.248.588-.643 1.28-.963 2.075-.963.489 0 .956.131 1.395.393.44.263.782.605 1.024 1.026v-1.248zm.182 3.085c0-.56-.205-1.039-.616-1.438s-.902-.6-1.475-.6c-.557 0-1.043.199-1.458.595-.416.396-.624.862-.624 1.398 0 .58.204 1.073.608 1.479.405.407.897.61 1.474.61.572 0 1.065-.201 1.475-.605.41-.403.616-.884.616-1.439zm7.966 1.175v1.479c-.673.377-1.324.565-1.957.565-.864 0-1.621-.319-2.271-.956s-.974-1.375-.974-2.211c0-.953.323-1.742.971-2.369.647-.627 1.458-.94 2.433-.94.581 0 1.181.148 1.798.446v1.442c-.663-.416-1.29-.624-1.881-.624-.545 0-1.023.188-1.433.564-.409.377-.614.818-.614 1.324 0 .57.192 1.049.577 1.439.383.389.854.583 1.41.583.565 0 1.214-.247 1.941-.743zm1.772-7.777h1.32v4.52c.364-.41.704-.71 1.02-.895.316-.187.702-.278 1.156-.278.531 0 .99.199 1.376.598.387.399.581.875.581 1.431v4.276h-1.32v-3.911c0-.386-.1-.696-.3-.93a.992.992 0 00-.792-.349c-.475 0-.881.176-1.217.528a1.78 1.78 0 00-.505 1.278v3.383h-1.32v-9.651zm7.003 1.501c0-.267.1-.499.303-.694a.997.997 0 01.722-.294c.273 0 .509.098.709.294.199.195.3.428.3.694a.94.94 0 01-.3.7.99.99 0 01-.709.29c-.278 0-.519-.098-.722-.29a.937.937 0 01-.303-.7zm.372 2.016h1.304v6.134h-1.304v-6.134zm3.188 6.134v-6.134h1.29v1.019c.379-.412.722-.713 1.03-.904s.653-.286 1.032-.286c.567 0 1.05.182 1.453.55.402.367.603.808.603 1.323v4.432h-1.32v-4.052c0-.333-.11-.607-.33-.825s-.499-.327-.838-.327c-.44 0-.819.182-1.138.545-.319.364-.478.805-.478 1.32v3.339h-1.304zm13.45-2.818h-5.34c.116.63.382 1.089.793 1.379s.861.435 1.346.435c.748 0 1.375-.304 1.881-.914l.963.715c-.723.917-1.692 1.375-2.904 1.375-.931 0-1.709-.311-2.336-.937-.627-.624-.941-1.4-.941-2.327 0-.867.317-1.62.953-2.257.634-.636 1.409-.954 2.324-.954.9 0 1.67.323 2.313.97.641.647.958 1.485.948 2.517zm-5.203-1.033h3.822c-.425-.844-1.052-1.264-1.881-1.264-.905 0-1.552.42-1.941 1.264zm19.256-5.295v1.465c-1.042-.501-1.999-.75-2.874-.75-1.122 0-2.068.354-2.837 1.065-.769.712-1.152 1.584-1.152 2.619 0 1.055.393 1.936 1.179 2.641.786.704 1.771 1.057 2.953 1.057.859 0 1.771-.264 2.73-.795v1.479a6.056 6.056 0 01-2.844.684c-1.497 0-2.775-.496-3.837-1.489s-1.593-2.191-1.593-3.593c0-1.377.521-2.555 1.565-3.537 1.045-.98 2.301-1.471 3.774-1.471.946 0 1.923.208 2.934.624zm1.246 6.052c0-.838.337-1.583 1.013-2.234.674-.651 1.449-.977 2.324-.977.9 0 1.686.32 2.359.963.671.641 1.009 1.392 1.009 2.248 0 .862-.33 1.623-.99 2.28-.66.656-1.422.984-2.287.984-.925 0-1.728-.324-2.408-.974-.68-.649-1.02-1.412-1.02-2.29zm5.431.004c0-.522-.202-.974-.607-1.36a2.02 2.02 0 00-1.442-.577c-.571 0-1.062.195-1.475.585-.412.389-.617.855-.617 1.396 0 .517.208.968.626 1.356.416.387.905.581 1.466.581.547 0 1.024-.199 1.433-.595.41-.397.616-.859.616-1.386zm2.719 3.09v-6.134h1.304v.944c.308-.387.603-.669.884-.848.28-.178.603-.267.966-.267.476 0 .849.1 1.119.304.271.204.499.528.686.974.33-.446.649-.77.956-.974s.664-.304 1.07-.304c.498 0 .927.182 1.287.545.36.364.541.798.541 1.299v4.461h-1.32v-4.127c0-.679-.343-1.019-1.027-1.019-.39 0-.722.174-.993.521s-.407.775-.407 1.286v3.339h-1.319v-3.956c0-.803-.337-1.204-1.009-1.204-.4 0-.739.164-1.017.491-.277.327-.416.73-.416 1.211v3.458h-1.304zm12.123-6.134v1.234c.631-.937 1.439-1.405 2.423-1.405.808 0 1.504.316 2.086.947.584.633.875 1.387.875 2.264a3.29 3.29 0 01-.887 2.299c-.59.644-1.287.966-2.089.966-.465 0-.911-.119-1.337-.357a2.868 2.868 0 01-1.056-1.033v4.096h-1.32v-9.011h1.304zm4.005 3.04c0-.539-.207-1.012-.621-1.416a2.025 2.025 0 00-1.461-.605c-.57 0-1.063.201-1.479.601-.418.402-.626.875-.626 1.42 0 .561.207 1.046.617 1.458.412.412.897.617 1.458.617.58 0 1.078-.204 1.491-.61.415-.406.621-.894.621-1.465zm8.505-3.04h1.319v6.134h-1.319v-1.22c-.643.927-1.439 1.39-2.389 1.39-.825 0-1.528-.317-2.112-.951s-.877-1.406-.877-2.313c0-.857.294-1.607.884-2.248.588-.643 1.28-.963 2.075-.963.489 0 .956.131 1.395.393.44.263.782.605 1.024 1.026v-1.248zm.182 3.085c0-.56-.205-1.039-.616-1.438s-.902-.6-1.475-.6c-.557 0-1.043.199-1.458.595-.416.396-.624.862-.624 1.398 0 .58.204 1.073.608 1.479.405.407.897.61 1.474.61.572 0 1.065-.201 1.475-.605.41-.403.616-.884.616-1.439zm3.029 3.049v-6.134h1.29v1.019c.379-.412.722-.713 1.03-.904s.653-.286 1.032-.286c.567 0 1.05.182 1.453.55.402.367.603.808.603 1.323v4.432h-1.32v-4.052c0-.333-.11-.607-.33-.825s-.499-.327-.838-.327c-.44 0-.819.182-1.138.545-.319.364-.478.805-.478 1.32v3.339h-1.304zm6.335-6.134h1.497l2.27 3.332 1.57-3.332h1.36l-4.226 9.011h-1.379l2.066-4.388-3.158-4.623zM10.144 26.121v.51l.103-.583-.103.073zM24.603 9.839c.6-.52.992-1.281.992-2.137v-.966a2.832 2.832 0 00-2.829-2.833h-1.018a.58.58 0 00-.579.582v13.742a.583.583 0 101.165 0v-7.691h.715a1.67 1.67 0 011.669 1.667v3.608a.58.58 0 101.158 0v-3.608c0-.99-.506-1.857-1.273-2.364zm-2.269-.468V5.064h.431c.917 0 1.666.752 1.666 1.671v.966a1.67 1.67 0 01-1.666 1.67h-.431z"/><path d="M.708 32.897a.581.581 0 01-.581-.584V4.485c0-.324.26-.588.586-.582 1.829 0 3.488 3.737 4.402 5.52.123.235.49.231.617 0 .958-1.707 2.572-5.52 4.407-5.52a.577.577 0 01.584.582v21.458a.581.581 0 01-1.164 0V6.026c0-.247.071-.998-.475-.364-1.63 1.881-2.921 4.857-3.339 6.033-.115.323-.568.338-.697.023-.461-1.156-1.785-4.564-3.27-6.036-.585-.572-.487.11-.487.364l-.004 26.267c0 .32-.26.584-.58.584z" stroke="#231815" stroke-linejoin="round" stroke-width=".254" fill="#231815"/><path class="cls-1" d="M20.074 19.344L16.51 4.35a.59.59 0 00-.573-.448h-.013a.58.58 0 00-.555.476l-3.56 20.058a.587.587 0 00.474.678c.031.012.067.012.105.012.279 0 .52-.199.569-.482l1.526-8.736h3.531c.018 0 .031-.006.054-.012l.876 3.718a.581.581 0 101.131-.272zm-5.385-4.6l1.329-7.415 1.772 7.415h-3.1zm14.86-1.523a2.592 2.592 0 01-2.59-2.587V4.485c0-.324.263-.582.582-.582a.58.58 0 01.585.582v6.149a1.424 1.424 0 002.849 0V4.485a.58.58 0 111.16 0v6.149c0 1.43-1.16 2.587-2.585 2.587zm6.144-9.318h-2.119a.58.58 0 000 1.162h.482v4.831a.581.581 0 101.163 0V5.065h.474a.58.58 0 100-1.162zm2.928 0a1.77 1.77 0 00-1.769 1.772v.307c0 .977.792 1.77 1.769 1.77s1.776-.793 1.776-1.77v-.307c0-.977-.796-1.772-1.776-1.772zm.854 2.138a.852.852 0 01-1.702 0v-.428a.852.852 0 011.702 0v.428z"/></g></svg>