<?xml version="1.0" encoding="UTF-8"?>
<svg id="_レイヤー_2" data-name="レイヤー 2" xmlns="http://www.w3.org/2000/svg" viewBox="0 0 28.628 23.266">
  <defs>
    <style>
      .cls-1 {
        fill: #fff;
      }
    </style>
  </defs>
  <g id="_レイヤー_1-2" data-name="レイヤー 1">
    <path class="cls-1" d="m9.003,23.266c10.803,0,16.711-8.95,16.711-16.711,0-.254-.005-.508-.017-.759,1.147-.829,2.144-1.863,2.93-3.041-1.052.467-2.185.783-3.373.925,1.213-.727,2.144-1.878,2.583-3.249-1.135.673-2.392,1.162-3.729,1.426-1.072-1.142-2.598-1.856-4.287-1.856-3.244,0-5.874,2.63-5.874,5.873,0,.461.052.909.152,1.339-4.881-.245-9.21-2.583-12.106-6.137-.505.868-.795,1.876-.795,2.952,0,2.038,1.037,3.837,2.614,4.889-.963-.03-1.869-.294-2.66-.735-.001.025-.001.049-.001.075,0,2.845,2.025,5.22,4.712,5.758-.493.134-1.012.207-1.548.207-.378,0-.746-.037-1.104-.106.748,2.333,2.916,4.032,5.487,4.079-2.011,1.575-4.543,2.514-7.295,2.514-.474,0-.941-.027-1.401-.081,2.599,1.666,5.686,2.638,9.003,2.638"/>
  </g>
</svg>